<svg width="200" height="200" viewBox="0 0 200 200" fill="none" xmlns="http://www.w3.org/2000/svg">
<rect x="6" y="6" width="188" height="188" rx="23.5" fill="url(#paint0_linear_2453_5392)"/>
<rect x="6" y="6" width="188" height="188" rx="23.5" fill="url(#paint1_radial_2453_5392)" fill-opacity="0.7"/>
<rect x="9.91667" y="9.91667" width="180.167" height="180.167" rx="19.5833" stroke="black" stroke-opacity="0.1" stroke-width="7.83333"/>
<rect x="7.95833" y="7.95833" width="184.083" height="184.083" rx="21.5417" stroke="black" stroke-width="3.91667"/>
<g filter="url(#filter0_f_2453_5392)">
<path d="M25.5833 23.4663L172.645 21.6667L174.417 154.833L160.242 37.8627L48.6171 34.2636L25.5833 23.4663Z" fill="#FEFBF7" fill-opacity="0.5"/>
</g>
<g filter="url(#filter1_f_2453_5392)">
<path d="M158.75 180.609L19.4286 182.25L17.75 60.8333L31.1786 167.483L136.929 170.765L158.75 180.609Z" fill="#FEFBF7" fill-opacity="0.6"/>
</g>
<circle cx="100" cy="100" r="19.5833" fill="url(#paint2_radial_2453_5392)"/>
<circle cx="100" cy="100" r="17.625" stroke="black" stroke-width="3.91667"/>
<defs>
<filter id="filter0_f_2453_5392" x="17.1233" y="13.2067" width="165.753" height="150.087" filterUnits="userSpaceOnUse" color-interpolation-filters="sRGB">
<feFlood flood-opacity="0" result="BackgroundImageFix"/>
<feBlend mode="normal" in="SourceGraphic" in2="BackgroundImageFix" result="shape"/>
<feGaussianBlur stdDeviation="4.23" result="effect1_foregroundBlur_2453_5392"/>
</filter>
<filter id="filter1_f_2453_5392" x="9.29" y="52.3733" width="157.92" height="138.337" filterUnits="userSpaceOnUse" color-interpolation-filters="sRGB">
<feFlood flood-opacity="0" result="BackgroundImageFix"/>
<feBlend mode="normal" in="SourceGraphic" in2="BackgroundImageFix" result="shape"/>
<feGaussianBlur stdDeviation="4.23" result="effect1_foregroundBlur_2453_5392"/>
</filter>
<linearGradient id="paint0_linear_2453_5392" x1="194" y1="111.75" x2="6" y2="111.75" gradientUnits="userSpaceOnUse">
<stop stop-color="#AEADB3"/>
<stop offset="0.0808152" stop-color="#F0EFEC"/>
<stop offset="0.89305" stop-color="#F0EEF1"/>
<stop offset="1" stop-color="#D6D3D0"/>
</linearGradient>
<radialGradient id="paint1_radial_2453_5392" cx="0" cy="0" r="1" gradientUnits="userSpaceOnUse" gradientTransform="translate(100.001 100.001) scale(94.0007)">
<stop offset="0.2973" stop-color="#F6FFFF"/>
<stop offset="1" stop-color="#CCEFFE"/>
</radialGradient>
<radialGradient id="paint2_radial_2453_5392" cx="0" cy="0" r="1" gradientUnits="userSpaceOnUse" gradientTransform="translate(94.125 103.917) rotate(-22.6199) scale(25.4583 27.6637)">
<stop stop-color="#353336"/>
<stop offset="1" stop-color="#59595C"/>
</radialGradient>
</defs>
</svg>
